<mxfile host="65bd71144e">
    <diagram id="-TR6fQvHQrYsHPy_H-Bm" name="Page-1">
        <mxGraphModel dx="938" dy="805" grid="1" gridSize="10" guides="1" tooltips="1" connect="1" arrows="1" fold="1" page="1" pageScale="1" pageWidth="827" pageHeight="1169" math="0" shadow="0">
            <root>
                <mxCell id="0"/>
                <mxCell id="1" parent="0"/>
                <mxCell id="2" value="Blood" style="swimlane;childLayout=stackLayout;resizeParent=1;resizeParentMax=0;horizontal=1;startSize=20;horizontalStack=0;" parent="1" vertex="1">
                    <mxGeometry x="40" y="210" width="480" height="770" as="geometry">
                        <mxRectangle x="40" y="210" width="70" height="20" as="alternateBounds"/>
                    </mxGeometry>
                </mxCell>
                <mxCell id="3" value="Application" style="swimlane;startSize=20;horizontal=0;" parent="2" vertex="1">
                    <mxGeometry y="20" width="480" height="120" as="geometry">
                        <mxRectangle y="20" width="480" height="20" as="alternateBounds"/>
                    </mxGeometry>
                </mxCell>
                <mxCell id="6" value="Cli" style="whiteSpace=wrap;html=1;" parent="3" vertex="1">
                    <mxGeometry x="40" y="45" width="100" height="30" as="geometry"/>
                </mxCell>
                <mxCell id="7" value="Desktop" style="whiteSpace=wrap;html=1;" parent="3" vertex="1">
                    <mxGeometry x="170" y="45" width="100" height="30" as="geometry"/>
                </mxCell>
                <mxCell id="8" value="Web" style="whiteSpace=wrap;html=1;" parent="3" vertex="1">
                    <mxGeometry x="303.5" y="45" width="100" height="30" as="geometry"/>
                </mxCell>
                <mxCell id="4" value="Blueprint" style="swimlane;startSize=20;horizontal=0;" parent="2" vertex="1">
                    <mxGeometry y="140" width="480" height="120" as="geometry">
                        <mxRectangle y="140" width="480" height="20" as="alternateBounds"/>
                    </mxGeometry>
                </mxCell>
                <mxCell id="22" value="BP4CAD" style="whiteSpace=wrap;html=1;" parent="4" vertex="1">
                    <mxGeometry x="40" y="45" width="100" height="30" as="geometry"/>
                </mxCell>
                <mxCell id="23" value="BP4***" style="whiteSpace=wrap;html=1;" parent="4" vertex="1">
                    <mxGeometry x="180" y="45" width="100" height="30" as="geometry"/>
                </mxCell>
                <mxCell id="5" value="ION" style="swimlane;startSize=20;horizontal=0;" parent="2" vertex="1">
                    <mxGeometry y="260" width="480" height="140" as="geometry">
                        <mxRectangle y="60" width="480" height="20" as="alternateBounds"/>
                    </mxGeometry>
                </mxCell>
                <mxCell id="19" value="Asset" style="whiteSpace=wrap;html=1;" parent="5" vertex="1">
                    <mxGeometry x="50" y="50" width="100" height="30" as="geometry"/>
                </mxCell>
                <mxCell id="20" value="Story" style="whiteSpace=wrap;html=1;" parent="5" vertex="1">
                    <mxGeometry x="190" y="50" width="100" height="30" as="geometry"/>
                </mxCell>
                <mxCell id="9" value="Datasmith" style="swimlane;startSize=20;horizontal=0;" parent="2" vertex="1">
                    <mxGeometry y="400" width="480" height="180" as="geometry">
                        <mxRectangle y="60" width="480" height="20" as="alternateBounds"/>
                    </mxGeometry>
                </mxCell>
                <mxCell id="15" value="JSON" style="whiteSpace=wrap;html=1;" parent="9" vertex="1">
                    <mxGeometry x="50" y="60" width="100" height="30" as="geometry"/>
                </mxCell>
                <mxCell id="16" value="GLTF" style="whiteSpace=wrap;html=1;" parent="9" vertex="1">
                    <mxGeometry x="180" y="60" width="100" height="30" as="geometry"/>
                </mxCell>
                <mxCell id="17" value="3DTiles" style="whiteSpace=wrap;html=1;" parent="9" vertex="1">
                    <mxGeometry x="313.5" y="60" width="100" height="30" as="geometry"/>
                </mxCell>
                <mxCell id="18" value="GEOJSON" style="whiteSpace=wrap;html=1;" parent="9" vertex="1">
                    <mxGeometry x="180" y="120" width="100" height="30" as="geometry"/>
                </mxCell>
                <mxCell id="10" value="Raw Data" style="swimlane;startSize=20;horizontal=0;" parent="2" vertex="1">
                    <mxGeometry y="580" width="480" height="190" as="geometry">
                        <mxRectangle y="60" width="480" height="20" as="alternateBounds"/>
                    </mxGeometry>
                </mxCell>
                <mxCell id="12" value="CAD" style="whiteSpace=wrap;html=1;" parent="10" vertex="1">
                    <mxGeometry x="50" y="70" width="100" height="30" as="geometry"/>
                </mxCell>
                <mxCell id="13" value="GIS" style="whiteSpace=wrap;html=1;" parent="10" vertex="1">
                    <mxGeometry x="180" y="70" width="100" height="30" as="geometry"/>
                </mxCell>
                <mxCell id="14" value="3D Model" style="whiteSpace=wrap;html=1;" parent="10" vertex="1">
                    <mxGeometry x="313.5" y="70" width="100" height="30" as="geometry"/>
                </mxCell>
            </root>
        </mxGraphModel>
    </diagram>
</mxfile>